<svg width="52" height="28" viewBox="0 0 52 28" fill="none" xmlns="http://www.w3.org/2000/svg">
<path d="M0 28V0H9.12733C12.034 0 14.601 0.6 16.8285 1.8C19.0832 3 20.8353 4.65333 22.0849 6.76C23.3616 8.84 24 11.2533 24 14C24 16.72 23.3616 19.1333 22.0849 21.24C20.8353 23.3467 19.0832 25 16.8285 26.2C14.601 27.4 12.034 28 9.12733 28H0ZM5.58234 22.88H9.12733C10.4312 22.88 11.6401 22.6533 12.7538 22.2C13.8676 21.7467 14.8319 21.12 15.6469 20.32C16.489 19.52 17.1409 18.5867 17.6027 17.52C18.0645 16.4267 18.2954 15.2533 18.2954 14C18.2954 12.7467 18.0645 11.5867 17.6027 10.52C17.1409 9.42667 16.489 8.48 15.6469 7.68C14.8319 6.88 13.8676 6.25333 12.7538 5.8C11.6401 5.34667 10.4312 5.12 9.12733 5.12H5.58234V22.88Z" fill="#BA007C"/>
<path d="M38.4685 28C35.6486 28 33.1449 27.407 30.9575 26.221C28.7965 25.0092 27.0966 23.3591 25.858 21.2707C24.6193 19.1565 24 16.733 24 14C24 11.267 24.6193 8.85635 25.858 6.76796C27.0966 4.65378 28.7965 3.00368 30.9575 1.81768C33.1449 0.605893 35.6486 0 38.4685 0C40.1552 0 41.7101 0.244935 43.1332 0.734806C44.5564 1.22468 45.8082 1.90792 46.8887 2.78453C47.9956 3.63536 48.918 4.6151 49.6559 5.72376L45.2284 8.43094C44.7804 7.73481 44.1874 7.11602 43.4495 6.57458C42.7379 6.03315 41.9473 5.60773 41.0776 5.29834C40.2079 4.98895 39.3382 4.83425 38.4685 4.83425C36.7291 4.83425 35.1874 5.23389 33.8433 6.03315C32.4993 6.80663 31.4451 7.87661 30.6808 9.24309C29.9165 10.6096 29.5344 12.1952 29.5344 14C29.5344 15.779 29.9034 17.3646 30.6413 18.7569C31.4056 20.1492 32.4729 21.2449 33.8433 22.0442C35.2138 22.8177 36.795 23.2044 38.5871 23.2044C39.9839 23.2044 41.2225 22.9337 42.3031 22.3923C43.41 21.8508 44.2796 21.0902 44.9122 20.1105C45.5447 19.1308 45.8609 17.9963 45.8609 16.7072L51 15.9337C51 18.4862 50.4597 20.6648 49.3792 22.4696C48.325 24.2744 46.8492 25.6538 44.9517 26.6077C43.0805 27.5359 40.9195 28 38.4685 28ZM39.3777 17.1713V13.0331H51V16.3204L48.0747 17.1713H39.3777Z" fill="#009BDB"/>
</svg>
